<svg width="43" height="43" viewBox="0 0 43 43" fill="none" xmlns="http://www.w3.org/2000/svg">
<g id="veg.svg" clip-path="url(#clip0_2_109)">
<path id="Vector" d="M29.3858 42.55C31.439 42.5486 33.2518 41.2092 33.8558 39.2465L36.7184 29.9501C37.9888 25.8209 38.6352 21.5252 38.6352 17.2052C38.6352 14.0056 36.0416 11.4121 32.842 11.4121H31.3938C28.1942 11.4121 25.6007 14.0056 25.6007 17.2052V38.7649C25.6007 40.8553 27.2954 42.55 29.3858 42.55Z" fill="#D43D3D"/>
<path id="Vector_2" d="M24.6955 2.69217C24.0057 4.55166 23.7278 6.53844 23.8809 8.51568H24.8765C26.4762 8.51568 27.7731 9.81262 27.7731 11.4122V12.8605H16.911V11.4122C16.911 9.81262 18.208 8.51568 19.8076 8.51568C19.7337 5.82244 20.6215 3.19142 22.3117 1.09326L24.6955 2.69217Z" fill="#5F9548"/>
<path id="Vector_3" d="M14.5742 42.55C12.5209 42.5486 10.7081 41.2092 10.1042 39.2465L7.24157 29.9501C5.97115 25.8209 5.3248 21.5252 5.3248 17.2052C5.3248 14.0056 7.91833 11.4121 11.1179 11.4121H12.5662C15.7658 11.4121 18.3593 14.0056 18.3593 17.2052V38.7649C18.3593 40.8553 16.6646 42.55 14.5742 42.55Z" fill="#D43D3D"/>
<path id="Vector_4" d="M14.0145 15.7569V18.3985C14.0145 21.9428 14.2853 25.4818 14.8242 28.9848L16.0723 38.7751C16.3983 40.8949 18.2225 42.4598 20.3673 42.4595H23.0468C25.1916 42.4598 27.0154 40.8949 27.3414 38.7751L29.133 28.9848C29.6729 25.4818 29.9445 21.9428 29.9455 18.3985V15.7569C29.9455 13.3575 28.0001 11.4121 25.6007 11.4121H18.3593C15.9599 11.4121 14.0145 13.3575 14.0145 15.7569Z" fill="#E94F4F"/>
<path id="Vector_5" d="M15.7785 36.4671L16.0724 38.7764C16.3984 40.8961 18.2225 42.4611 20.3673 42.4607H23.0468C25.1916 42.4611 27.0154 40.8961 27.3414 38.7764L29.133 28.986C29.6726 25.4848 29.9441 21.948 29.9455 18.4058C27.736 26.0315 22.6585 32.5045 15.7785 36.4671Z" fill="#E04646"/>
<path id="Vector_6" d="M16.1869 17.9292H17.6352V19.468H16.1869V17.9292Z" fill="#F26666"/>
<path id="Vector_7" d="M17.056 29.3915L16.6505 26.5557C16.3648 24.7072 16.2099 22.8406 16.1869 20.9705L17.6352 20.9546C17.6557 22.7597 17.8035 24.5612 18.0775 26.3457L18.4852 29.1885L17.056 29.3915Z" fill="#F26666"/>
<path id="Vector_8" d="M24.8766 1.99808C24.8766 2.79788 24.2281 3.44635 23.4283 3.44635C22.6285 3.44635 21.98 2.79788 21.98 1.99808C21.98 1.19828 22.6285 0.549805 23.4283 0.549805C24.2281 0.549805 24.8766 1.19828 24.8766 1.99808Z" fill="#77AD50"/>
</g>
<defs>
<clipPath id="clip0_2_109">
<rect width="42" height="42" fill="white" transform="translate(0.97998 0.549805)"/>
</clipPath>
</defs>
</svg>
